# xmcd
#
# Track frame offsets:
#	150
#	15638
#	31010
#	54560
#	70793
#	85160
#	109001
#	126865
#	144501
#	159322
#	178002
#	193379
#	212466
#	230669
#	248935
#
# Disc length: 3552 seconds
#
# Revision: 0
# Processed by: cddbd v1.5.2PL0 Copyright (c) Steve Scherf et al.
# Submitted via: audiograbber 1.83.01
#
DISCID=ca0dde0f
DTITLE=Various Artist - NRJ Hits 13 [CD2)
DYEAR=2009
DGENRE=Pop
TTITLE0=Naturi Naughton - Fame
TTITLE1=Anna Puu - C'est La Vie
TTITLE2=Akon - Beautiful
TTITLE3=The 69 Eyes - Dead n' Gone
TTITLE4=Irina - Et Huomaa
TTITLE5=Mando Diao - Dance With Somebody
TTITLE6=MIKA - We Are Golden
TTITLE7=Cheek - Mit‰ T‰nne J‰‰
TTITLE8=Pixie Lott - Mama Do (Uh Oh, Uh Oh)
TTITLE9=Bat For Lashes - Daniel
TTITLE10=Uniklubi - Mit‰ Vittua
TTITLE11=Ladyhawke - My Delirium
TTITLE12=Don Johnson Big Band - Running Man (Edit)
TTITLE13=PMMP - Pariterapiaa
TTITLE14=Pete Parkkonen - Minute Is A Lifetime
EXTD=TR.
EXTT0=
EXTT1=
EXTT2=
EXTT3=
EXTT4=
EXTT5=
EXTT6=
EXTT7=
EXTT8=
EXTT9=
EXTT10=
EXTT11=
EXTT12=
EXTT13=
EXTT14=
PLAYORDER=
